<?xml version="1.0" standalone="no"?>
<!DOCTYPE svg PUBLIC "-//W3C//DTD SVG 20010904//EN"
 "http://www.w3.org/TR/2001/REC-SVG-20010904/DTD/svg10.dtd">
<svg version="1.0" xmlns="http://www.w3.org/2000/svg"
 width="300.000000pt" height="300.000000pt" viewBox="0 0 300.000000 300.000000"
 preserveAspectRatio="xMidYMid meet">
<metadata>
Created by potrace 1.10, written by Peter Selinger 2001-2011
</metadata>
<g transform="translate(0.000000,300.000000) scale(0.100000,-0.100000)"
fill="#000000" stroke="none">
<path d="M867 2323 c-13 -12 -7 -33 8 -33 8 0 15 9 15 20 0 20 -11 26 -23 13z"/>
<path d="M784 2309 c-10 -17 13 -36 27 -22 12 12 4 33 -11 33 -5 0 -12 -5 -16
-11z"/>
<path d="M937 2313 c-4 -3 -7 -12 -7 -20 0 -17 26 -17 33 1 8 21 -11 35 -26
19z"/>
<path d="M712 2283 c4 -21 33 -25 33 -3 0 8 -8 16 -18 18 -14 3 -18 -1 -15
-15z"/>
<path d="M1003 2284 c-7 -19 2 -28 22 -21 19 8 19 23 0 31 -9 3 -18 -1 -22
-10z"/>
<path d="M646 2255 c-3 -9 1 -18 10 -22 19 -7 28 2 21 22 -8 19 -23 19 -31 0z"/>
<path d="M783 2255 c-96 -26 -184 -101 -227 -194 -32 -71 -30 -198 6 -271 47
-98 122 -159 228 -186 79 -20 140 -14 220 22 162 73 241 276 168 435 -47 102
-122 166 -230 195 -65 17 -98 17 -165 -1z m201 -36 c64 -23 133 -86 168 -150
31 -59 34 -214 4 -269 -37 -69 -86 -118 -149 -150 l-62 -31 -5 118 -5 118 -79
110 c-109 152 -113 155 -158 155 -21 0 -38 -3 -38 -7 0 -5 45 -71 100 -147
l100 -139 0 -79 c0 -56 -4 -78 -12 -78 -10 0 -12 17 -10 61 4 66 -3 109 -18
109 -6 0 -10 -40 -10 -95 l0 -95 40 0 40 0 0 89 0 89 -95 132 c-53 73 -94 135
-91 138 13 13 41 -16 120 -129 l86 -123 0 -118 0 -119 -62 7 c-84 9 -138 34
-197 89 -65 61 -94 129 -95 220 -1 106 37 186 122 253 l39 31 108 -154 c60
-85 112 -155 116 -155 4 0 9 6 12 13 3 7 35 54 71 105 36 50 66 94 66 97 0 3
-34 5 -75 5 l-74 0 -25 -37 c-25 -37 -25 -72 1 -37 27 37 43 54 53 54 15 0 12
-26 -6 -41 -20 -17 -47 -69 -35 -69 5 0 27 25 50 55 23 30 48 55 56 55 22 0
20 -5 -35 -77 -27 -36 -50 -70 -50 -74 0 -24 -22 -1 -80 84 -35 50 -79 112
-98 137 l-34 45 29 12 c45 20 155 16 217 -8z"/>
<path d="M1067 2245 c-7 -16 8 -29 23 -20 15 9 12 35 -4 35 -8 0 -16 -7 -19
-15z"/>
<path d="M584 2209 c-8 -14 14 -29 32 -22 16 6 7 33 -11 33 -8 0 -17 -5 -21
-11z"/>
<path d="M1124 2199 c-3 -6 -2 -15 4 -21 13 -13 32 -2 32 18 0 16 -26 19 -36
3z"/>
<path d="M1350 2035 c0 -73 1 -75 25 -75 21 0 25 5 25 30 0 28 3 30 34 30 26
0 36 5 41 20 15 47 -16 70 -96 70 l-29 0 0 -75z m80 25 c0 -11 -7 -20 -15 -20
-8 0 -15 9 -15 20 0 11 7 20 15 20 8 0 15 -9 15 -20z"/>
<path d="M1520 2035 l0 -75 60 0 c47 0 60 3 60 15 0 11 -11 15 -40 15 -54 0
-56 27 -2 32 48 4 48 22 -1 26 -48 4 -45 27 4 27 24 0 35 5 37 18 3 15 -5 17
-57 17 l-61 0 0 -75z"/>
<path d="M1723 2098 c-9 -12 -53 -122 -53 -133 0 -10 37 -4 48 7 17 17 44 19
56 4 13 -16 46 -28 46 -18 0 5 -11 39 -23 78 -18 52 -29 70 -44 72 -11 2 -24
-3 -30 -10z m37 -75 c0 -7 -7 -13 -15 -13 -16 0 -19 9 -9 35 5 13 8 14 15 3 5
-7 9 -19 9 -25z"/>
<path d="M1870 2090 c-27 -27 -27 -90 0 -115 25 -22 76 -22 101 1 24 22 24 30
-1 37 -12 3 -23 -1 -28 -10 -15 -26 -47 -11 -50 23 -4 41 21 63 46 42 19 -17
42 -13 42 6 0 15 -42 36 -70 36 -11 0 -29 -9 -40 -20z"/>
<path d="M2046 2089 c-32 -25 -35 -75 -7 -110 14 -17 28 -23 57 -22 47 1 74
30 74 78 0 38 -37 75 -75 75 -12 0 -34 -9 -49 -21z m79 -40 c10 -32 -4 -59
-31 -59 -24 0 -29 11 -25 55 3 38 45 41 56 4z"/>
<path d="M2242 2103 c-7 -3 -19 -18 -28 -35 -20 -39 -4 -95 31 -104 36 -9 77
-1 89 19 15 24 -13 44 -31 21 -6 -9 -20 -14 -30 -12 -25 5 -31 73 -7 82 10 4
22 2 28 -4 13 -13 46 -13 46 -1 0 27 -63 48 -98 34z"/>
<path d="M2389 2108 c0 -2 -1 -36 -2 -75 -2 -69 -1 -73 20 -73 16 0 22 7 25
27 4 37 23 39 37 4 8 -18 22 -31 37 -34 34 -6 36 1 9 42 -30 43 -31 62 -5 79
26 16 26 32 -1 32 -12 0 -34 -14 -50 -31 l-29 -31 0 31 c0 24 -4 31 -20 31
-11 0 -20 -1 -21 -2z"/>
<path d="M504 2089 c-3 -6 -2 -15 2 -19 12 -12 38 5 30 19 -9 14 -23 14 -32 0z"/>
<path d="M1210 2080 c-12 -7 -12 -12 -2 -22 9 -9 15 -9 24 0 16 16 -2 34 -22
22z"/>
<path d="M487 2023 c-13 -12 -7 -33 8 -33 8 0 15 9 15 20 0 20 -11 26 -23 13z"/>
<path d="M1222 1998 c7 -19 38 -22 38 -4 0 10 -9 16 -21 16 -12 0 -19 -5 -17
-12z"/>
<path d="M470 1935 c0 -8 9 -15 20 -15 11 0 20 7 20 15 0 8 -9 15 -20 15 -11
0 -20 -7 -20 -15z"/>
<path d="M1565 1829 c0 -73 3 -99 13 -99 9 0 12 25 12 94 0 66 -4 95 -12 99
-10 3 -13 -19 -13 -94z"/>
<path d="M1630 1909 c0 -11 -5 -29 -11 -41 -13 -25 -2 -39 15 -16 7 9 27 18
46 20 18 2 35 9 38 17 3 10 -3 12 -26 7 -24 -6 -30 -3 -35 13 -7 27 -27 27
-27 0z"/>
<path d="M2250 1914 c0 -13 -7 -15 -29 -11 -24 5 -30 2 -35 -16 -7 -29 -4 -30
32 -11 18 8 48 14 69 12 37 -4 37 -4 -15 -12 l-53 -9 3 -36 c3 -35 2 -36 -30
-34 -43 2 -37 -20 8 -27 39 -6 54 -30 19 -30 -15 0 -20 -3 -13 -10 6 -6 21 -6
42 2 25 10 37 10 52 0 14 -8 21 -9 26 0 4 6 -1 15 -10 20 -27 15 -18 28 19 28
19 0 35 5 35 10 0 11 -7 12 -71 11 -40 0 -48 3 -53 22 -8 32 -8 32 19 33 14 1
25 -2 25 -7 0 -5 -7 -9 -15 -9 -8 0 -15 -4 -15 -9 0 -18 42 -7 52 13 6 11 20
28 32 37 26 22 16 33 -29 31 -19 -1 -37 3 -40 8 -10 16 -25 12 -25 -6z"/>
<path d="M1987 1894 c-3 -3 -20 -7 -37 -8 -36 -2 -45 -20 -12 -24 23 -4 26
-12 16 -49 -4 -16 -14 -23 -31 -23 -14 0 -23 -5 -21 -11 2 -6 7 -10 11 -10 4
1 36 1 72 1 51 0 65 3 65 15 0 10 -11 15 -35 15 -33 0 -35 2 -35 35 0 29 4 35
21 35 11 0 19 5 17 12 -5 14 -22 21 -31 12z"/>
<path d="M480 1859 c0 -24 23 -21 28 4 2 10 -3 17 -12 17 -10 0 -16 -9 -16
-21z"/>
<path d="M1530 1836 c0 -25 5 -48 10 -51 6 -4 10 13 10 44 0 28 -4 51 -10 51
-5 0 -10 -20 -10 -44z"/>
<path d="M1224 1859 c-8 -14 11 -33 25 -25 6 4 11 11 11 16 0 13 -29 20 -36 9z"/>
<path d="M1650 1845 c0 -8 5 -15 10 -15 6 0 10 -4 10 -10 0 -5 -15 -10 -33
-10 -32 0 -33 -1 -29 -36 4 -34 6 -36 34 -30 17 3 40 6 53 6 18 0 22 6 23 35
1 29 -2 35 -18 35 -11 0 -20 6 -20 14 0 8 -7 16 -15 20 -9 3 -15 0 -15 -9z"/>
<path d="M1845 1850 c3 -5 13 -10 21 -10 8 0 14 -5 14 -11 0 -15 -21 -53 -34
-61 -8 -5 -7 -11 2 -20 15 -15 25 -5 40 40 14 41 1 72 -29 72 -11 0 -17 -4
-14 -10z"/>
<path d="M503 1802 c-7 -5 -9 -13 -3 -22 7 -11 11 -11 24 -1 24 20 6 40 -21
23z"/>
<path d="M1160 1714 c0 -9 7 -14 17 -12 25 5 28 28 4 28 -12 0 -21 -6 -21 -16z"/>
<path d="M1114 1669 c-10 -17 13 -36 27 -22 12 12 4 33 -11 33 -5 0 -12 -5
-16 -11z"/>
<path d="M637 1625 c-8 -18 11 -31 25 -17 11 11 3 32 -12 32 -4 0 -10 -7 -13
-15z"/>
<path d="M1056 1622 c-8 -13 11 -35 23 -28 16 10 14 36 -3 36 -8 0 -17 -4 -20
-8z"/>
<path d="M774 1569 c-10 -17 13 -36 27 -22 12 12 4 33 -11 33 -5 0 -12 -5 -16
-11z"/>
<path d="M927 1573 c-13 -12 -7 -33 8 -33 8 0 15 9 15 20 0 20 -11 26 -23 13z"/>
<path d="M844 1559 c-10 -17 13 -36 27 -22 12 12 4 33 -11 33 -5 0 -12 -5 -16
-11z"/>
<path d="M2130 1290 c0 -16 5 -21 23 -18 12 2 22 10 22 18 0 8 -10 16 -22 18
-18 3 -23 -2 -23 -18z"/>
<path d="M510 1190 c0 -103 1 -110 20 -110 19 0 20 7 20 110 0 103 -1 110 -20
110 -19 0 -20 -7 -20 -110z"/>
<path d="M1485 1277 c-35 -29 -45 -99 -21 -145 21 -41 80 -61 121 -41 38 19
53 45 37 61 -10 10 -15 8 -28 -10 -18 -26 -65 -30 -85 -6 -7 9 -14 34 -14 56
0 66 65 99 100 51 10 -13 13 -12 25 2 13 15 12 20 -9 36 -33 27 -93 25 -126
-4z"/>
<path d="M1147 1256 c-3 -8 -15 -12 -30 -9 -37 7 -67 -13 -67 -45 0 -16 6 -34
12 -40 10 -10 10 -15 -1 -21 -8 -5 -11 -16 -7 -29 4 -13 1 -22 -9 -26 -8 -3
-15 -12 -15 -20 0 -28 30 -46 79 -46 57 0 87 25 77 63 -6 25 -30 37 -78 37
-16 0 -28 5 -28 10 0 6 13 10 29 10 40 0 64 26 59 62 -3 16 -1 31 4 34 4 3 8
12 8 20 0 18 -26 18 -33 0z m-14 -48 c7 -21 -4 -38 -23 -38 -23 0 -34 16 -26
35 7 18 43 20 49 3z m16 -134 c10 -9 -14 -24 -39 -24 -31 0 -45 13 -35 31 6 9
62 4 74 -7z"/>
<path d="M2504 1257 c-3 -8 -16 -12 -33 -9 -20 3 -36 -3 -50 -17 -25 -25 -27
-44 -5 -66 15 -15 15 -17 -2 -29 -15 -11 -16 -17 -6 -29 10 -12 10 -16 -3 -21
-21 -8 -19 -43 4 -56 27 -14 94 -13 113 3 44 35 16 87 -47 87 -19 0 -35 5 -35
10 0 6 10 10 23 10 12 0 33 7 46 16 19 14 22 22 17 49 -4 19 -2 36 4 40 5 3
10 10 10 16 0 14 -30 11 -36 -4z m-14 -57 c0 -24 -26 -38 -42 -22 -16 16 -2
42 22 42 13 0 20 -7 20 -20z m19 -126 c11 -9 -15 -24 -45 -24 -32 0 -45 16
-28 33 6 5 64 -2 73 -9z"/>
<path d="M600 1165 c0 -78 2 -85 20 -85 18 0 20 7 20 60 0 49 3 61 20 70 32
17 40 4 40 -66 0 -57 2 -64 20 -64 18 0 20 7 20 59 0 66 18 94 46 70 11 -9 15
-28 13 -68 -3 -50 -1 -56 17 -56 16 0 19 8 22 58 2 41 -2 66 -13 83 -18 27
-56 32 -75 9 -12 -14 -15 -14 -30 0 -20 18 -51 20 -68 3 -9 -9 -12 -9 -12 0 0
7 -9 12 -20 12 -18 0 -20 -7 -20 -85z"/>
<path d="M892 1238 c-12 -6 -21 -16 -19 -22 4 -11 12 -11 60 0 25 6 28 4 25
-12 -2 -11 -15 -21 -34 -25 -44 -8 -54 -17 -54 -44 0 -46 53 -72 80 -40 11 13
14 13 27 0 8 -8 19 -15 24 -15 15 0 24 33 11 38 -7 2 -12 25 -12 57 0 43 -4
56 -19 65 -25 13 -59 12 -89 -2z m60 -120 c-14 -14 -42 -2 -42 17 0 9 10 19
23 24 18 7 23 5 25 -11 2 -11 -1 -25 -6 -30z"/>
<path d="M1238 1240 c-9 -6 -21 -25 -28 -44 -26 -81 59 -149 121 -96 20 17 22
21 9 29 -9 7 -18 7 -24 1 -21 -21 -76 -4 -76 22 0 4 25 8 55 8 54 0 55 0 55
29 0 49 -65 78 -112 51z m70 -42 c3 -15 -4 -18 -33 -18 -33 0 -35 2 -25 21 14
24 53 22 58 -3z"/>
<path d="M1686 1229 c-36 -28 -37 -89 -1 -124 30 -30 64 -32 99 -4 21 16 26
29 26 64 0 76 -65 110 -124 64z m73 -23 c7 -8 11 -30 9 -48 -3 -29 -6 -33 -33
-33 -27 0 -30 4 -33 35 -3 24 2 38 14 47 23 17 29 16 43 -1z"/>
<path d="M1852 1168 c3 -70 6 -83 21 -86 14 -3 17 5 17 52 0 37 5 60 16 71 28
27 39 12 42 -58 3 -59 5 -67 22 -67 18 0 20 7 20 59 0 66 18 94 45 71 10 -9
15 -31 15 -72 0 -51 2 -59 18 -56 24 5 30 110 7 144 -18 27 -56 32 -75 9 -11
-13 -14 -13 -27 0 -17 18 -37 19 -64 5 -13 -7 -19 -7 -19 0 0 5 -9 10 -20 10
-20 0 -21 -5 -18 -82z"/>
<path d="M2130 1165 c0 -78 2 -85 20 -85 18 0 20 7 20 85 0 78 -2 85 -20 85
-18 0 -20 -7 -20 -85z"/>
<path d="M2220 1164 c0 -76 2 -85 18 -82 13 2 18 15 20 60 3 59 20 85 47 74
11 -4 15 -22 15 -71 0 -59 2 -65 20 -65 19 0 21 5 18 77 -3 75 -4 78 -31 87
-20 7 -34 7 -47 -2 -12 -7 -21 -8 -25 -2 -3 6 -13 10 -21 10 -11 0 -14 -18
-14 -86z"/>
<path d="M1176 931 c-39 -43 -8 -90 67 -106 22 -4 28 -11 25 -28 -4 -28 -43
-35 -69 -11 -15 14 -21 14 -34 4 -20 -17 -4 -37 42 -49 67 -19 111 16 101 80
-2 19 -14 28 -53 41 -36 11 -50 21 -50 35 0 22 39 30 61 13 11 -10 17 -10 30
1 14 12 14 14 -2 26 -28 20 -98 16 -118 -6z"/>
<path d="M1361 874 c-37 -47 -21 -115 31 -133 60 -21 116 29 104 94 -13 66
-95 89 -135 39z m91 -29 c22 -49 -25 -98 -60 -63 -26 26 -6 88 29 88 11 0 24
-11 31 -25z"/>
<path d="M1550 880 c-26 -26 -27 -89 -1 -121 13 -16 29 -23 54 -23 52 0 77 27
77 81 0 54 -26 83 -75 83 -22 0 -43 -8 -55 -20z m79 -24 c7 -8 11 -30 9 -48
-3 -29 -6 -33 -33 -33 -27 0 -30 4 -33 33 -3 35 11 62 33 62 7 0 18 -6 24 -14z"/>
<path d="M1720 820 c0 -73 2 -80 20 -80 17 0 20 7 20 46 0 55 14 84 40 84 24
0 34 -33 28 -90 -3 -37 -1 -40 20 -40 24 0 24 2 20 71 -2 47 -8 73 -18 79 -21
14 -64 12 -78 -2 -9 -9 -12 -9 -12 0 0 7 -9 12 -20 12 -18 0 -20 -7 -20 -80z"/>
</g>
</svg>
